<svg width="48" height="48" viewBox="0 0 48 48" fill="none" xmlns="http://www.w3.org/2000/svg">
    <circle cx="24" cy="24" r="24" fill="white" fill-opacity="0.8"/>
    <g clip-path="url(#clip0)">
        <path d="M28.437 20.4367C27.9159 20.2248 27.3755 20.199 26.9457 20.3448C26.7352 20.0393 26.4453 19.787 26.0902 19.611C25.6784 19.4069 25.2308 19.3416 24.8248 19.4093L24.6388 12.8617C24.6091 11.8178 23.8111 11 22.822 11C21.8202 11 21.0051 11.8411 21.0051 12.875V13.6721C20.7451 13.5226 20.4458 13.4377 20.1257 13.4377C19.1239 13.4377 18.3088 14.2788 18.3088 15.3127V24.2885C18.1199 24.1009 17.9797 23.9027 17.8354 23.6987C17.477 23.192 17.0708 22.6179 15.9597 22.3783C15.0187 22.1754 14.2081 22.6417 13.8533 23.161C13.5727 23.5717 13.5494 24.035 13.791 24.4003C13.8623 24.5081 13.9457 24.6153 14.034 24.7288C14.3234 25.1008 14.7196 25.6101 15.1076 26.6752C15.648 28.1588 16.5814 28.8283 17.3314 29.3662C18.0543 29.8847 18.6014 30.2773 18.7294 31.2516C18.4851 31.2677 18.2917 31.4704 18.2917 31.7188V34.5313C18.2917 34.7902 18.5016 35 18.7605 35H29.1305C29.3893 35 29.5992 34.7902 29.5992 34.5313V31.7188C29.5992 31.4694 29.4043 31.2661 29.1586 31.2515C29.2209 30.6541 29.389 30.0458 29.5652 29.4093C29.7945 28.5812 30.0316 27.7248 30.0316 26.8496V22.8946C30.0316 21.7615 29.4355 20.8426 28.437 20.4367ZM28.6617 34.0625H19.2293V32.1875H21.836C22.0949 32.1875 22.3047 31.9777 22.3047 31.7188C22.3047 31.4599 22.0949 31.25 21.836 31.25H19.6726C19.5262 29.7874 18.6896 29.1866 17.8779 28.6044C17.166 28.0937 16.4298 27.5657 15.9885 26.3544C15.5501 25.1508 15.0832 24.5505 14.7741 24.1532C14.6938 24.0499 14.6244 23.9608 14.573 23.883C14.5359 23.827 14.6179 23.7038 14.6274 23.6899C14.8121 23.4195 15.2725 23.1891 15.7621 23.2947C16.5163 23.4574 16.7366 23.7687 17.07 24.2401C17.336 24.6161 17.66 25.0741 18.3088 25.4668V25.6602C18.3088 25.9191 18.5187 26.1289 18.7775 26.1289C19.0364 26.1289 19.2463 25.9191 19.2463 25.6602V15.3126C19.2463 14.7957 19.6408 14.3751 20.1257 14.3751C20.5993 14.3751 20.9939 14.8002 21.0052 15.3228L21.14 21.5219C21.1457 21.7807 21.3593 21.9877 21.6189 21.9804C21.8777 21.9748 22.0829 21.7604 22.0773 21.5016L21.9426 15.3077V12.875C21.9426 12.3581 22.3371 11.9375 22.822 11.9375C23.3001 11.9375 23.6865 12.3551 23.7016 12.8883L23.9469 21.5251C23.9541 21.7793 24.1625 21.9805 24.4152 21.9805C24.4197 21.9805 24.4242 21.9805 24.4288 21.9803C24.6876 21.973 24.8913 21.7573 24.884 21.4985L24.8518 20.3644C25.0877 20.284 25.3939 20.3122 25.6738 20.4509C26.1271 20.6756 26.3977 21.116 26.3977 21.6289C26.3977 21.8878 26.6076 22.0977 26.8664 22.0977C27.1252 22.0977 27.3352 21.8878 27.3352 21.6289C27.3352 21.488 27.3232 21.3503 27.2998 21.2168C27.4972 21.1686 27.7871 21.1846 28.0838 21.3052C28.3875 21.4287 29.094 21.8307 29.094 22.8945V26.8495C29.094 27.5974 28.884 28.356 28.6616 29.1591C28.4735 29.8387 28.2804 30.5375 28.2171 31.25H26.0546C25.7958 31.25 25.5859 31.4598 25.5859 31.7187C25.5859 31.9776 25.7958 32.1875 26.0546 32.1875H28.6616V34.0625H28.6617Z" fill="#1A2A41"/>
        <path d="M32.2382 12.8214L30.5539 11.1372C30.3708 10.9541 30.0741 10.9541 29.891 11.1372C29.7079 11.3202 29.7079 11.617 29.891 11.8001L30.775 12.6841H26.2578C25.999 12.6841 25.7891 12.894 25.7891 13.1529C25.7891 13.4117 25.999 13.6216 26.2578 13.6216H30.775L29.891 14.5056C29.7079 14.6887 29.7079 14.9855 29.891 15.1685C29.9825 15.2601 30.1025 15.3058 30.2224 15.3058C30.3424 15.3058 30.4623 15.26 30.5539 15.1685L32.2381 13.4843C32.326 13.3964 32.3754 13.2772 32.3754 13.1529C32.3754 13.0285 32.3261 12.9093 32.2382 12.8214Z" fill="#1A2A41"/>
        <path d="M23.9455 31.2499H23.9451C23.6863 31.2499 23.4766 31.4597 23.4766 31.7186C23.4766 31.9775 23.6866 32.1874 23.9455 32.1874C24.2043 32.1874 24.4142 31.9775 24.4142 31.7186C24.4142 31.4597 24.2043 31.2499 23.9455 31.2499Z" fill="#1A2A41"/>
    </g>
    <defs>
        <clipPath id="clip0">
            <rect width="24" height="24" fill="white" transform="translate(11 11)"/>
        </clipPath>
    </defs>
</svg>
